<svg width="294" height="44" viewBox="0 0 589 88" fill="none" xmlns="http://www.w3.org/2000/svg">
<g clip-path="url(#clip0_33_3)">
<path d="M95.6 75V12.3H139.8V23.6H107.7V37.7H136.5V49.1H107.7V75H95.6ZM161.225 75C152.725 75 147.725 70.2 147.725 62V25.6C147.725 17 152.525 12.3 161.325 12.3H182.025C190.625 12.3 195.625 17 195.625 25.6V62C195.625 70.1 190.525 75 182.025 75H161.225ZM164.725 63.7H178.825C181.925 63.7 183.525 62 183.525 58.3V29C183.525 25.3 182.025 23.5 178.425 23.5H164.825C161.125 23.5 159.525 25.4 159.525 29V58.3C159.525 61.9 161.525 63.7 164.725 63.7ZM219.756 75C211.156 75 205.756 70.3 205.756 61.6V12.3H217.556V57.4C217.556 61.4 219.556 63.7 223.456 63.7H236.356C240.356 63.7 242.156 61.6 242.156 57.4V12.3H253.856V61.5C253.856 70.4 248.556 75 239.956 75H219.756ZM312.934 38.1C312.934 45.5 309.434 50.1 302.834 50.9L312.734 75H300.534L290.534 51.1H277.034V75H265.034V12.3H299.034C307.634 12.3 312.934 16.3 312.934 24.5V38.1ZM277.034 23.6V39.9H296.234C299.334 39.9 301.034 38.4 301.034 35.3V28.1C301.034 25.1 299.134 23.6 296.234 23.6H277.034ZM323.139 75V12.3H335.139V75H323.139ZM383.381 12.3H395.281V75H384.581L358.181 34.8V75H346.381V12.3H357.481L383.681 52.4L383.381 12.3ZM406.742 75V63.7H436.742C439.842 63.7 441.142 61.9 441.142 59V55.4C441.142 53.8 440.342 52.4 438.742 52L414.342 46.1C408.542 44.8 405.342 41.6 405.342 35.3V23.9C405.342 16.2 409.542 12.3 417.442 12.3H450.242V23.6H421.642C418.542 23.6 417.142 25.4 417.142 27.9V31.9C417.142 33.4 417.942 34.9 419.942 35.4L444.542 41.3C449.942 42.6 453.142 46.2 453.142 52.2V63.7C453.142 71 448.242 75 440.642 75H406.742ZM463.373 75V12.3H475.373V75H463.373ZM486.616 75V12.3H521.116C529.916 12.3 534.516 17.2 534.516 26.2V61.1C534.516 70.3 529.816 75 521.016 75H486.616ZM498.716 63.7H517.416C521.016 63.7 522.616 62 522.616 58.3V28.8C522.616 25.2 521.016 23.6 517.216 23.6H498.716V63.7ZM544.721 75V12.3H589.221V23.6H556.821V37.1H585.221V48.5H556.821V63.7H589.221V75H544.721Z" fill="white"/>
<path d="M71 0L61.5 24.5C52 27.5 31.5 37 20 43C10.8 47.8 2.83333 55 0 58C1 37.5 22 26 32.5 20.5L71 0Z" fill="#FF3514"/>
<path d="M52.5 57.5L59.5 33.5C53.3334 35.8333 37.3 42.3 22.5 49.5C4 58.5 1 65.5 1 70.5C1 75.5 4 87 28.5 88C48.1 88.8 65.3334 78 71.5 72.5C40 86 14.5 81.5 15 71.5C15.4 63.5 40.1667 58.8333 52.5 57.5Z" fill="#FF3514"/>
</g>
<defs>
<clipPath id="clip0_33_3">
<rect width="589" height="88" fill="white"/>
</clipPath>
</defs>
</svg>
